<?xml version="1.0" encoding="utf-8"?>
<!-- Generator: Adobe Illustrator 16.0.4, SVG Export Plug-In . SVG Version: 6.00 Build 0)  -->
<!DOCTYPE svg PUBLIC "-//W3C//DTD SVG 1.1//EN" "http://www.w3.org/Graphics/SVG/1.1/DTD/svg11.dtd">
<svg version="1.1" id="Layer_1" xmlns="http://www.w3.org/2000/svg" xmlns:xlink="http://www.w3.org/1999/xlink" x="0px" y="0px"
	 width="13.824px" height="13.958px" viewBox="0 0 13.824 13.958" enable-background="new 0 0 13.824 13.958" xml:space="preserve">
<path fill="#A6225C" d="M6.953,0v0.131c1.82,0,3.543,0.723,4.849,2.037c1.317,1.326,2.033,3.074,2.022,4.922
	c-0.023,3.788-3.134,6.87-6.93,6.868H6.816C3.057,13.917,0,10.813,0,7.041c0-3.864,3.044-6.899,6.933-6.91L6.953,0L6.953,0z"/>
<g>
	<path fill="#E17098" d="M9.156,11.835c-0.02-0.11-0.042-0.218-0.066-0.327c-0.242-1.119-0.569-2.237-0.963-3.319
		C8.104,8.125,8.032,7.926,7.826,7.926c-0.055,0-0.115,0.016-0.183,0.047c-0.022,0.012-0.05,0.021-0.077,0.03L7.51,8.022
		c-1.639,0.621-3.041,1.719-4.291,3.36c-0.062,0.078-0.084,0.15-0.072,0.224c0.014,0.112,0.1,0.176,0.162,0.224
		c1.035,0.778,2.246,1.188,3.597,1.216h0.003h0.004c0.731-0.014,1.438-0.145,2.095-0.387c0.206-0.076,0.282-0.216,0.233-0.432
		C9.211,12.097,9.185,11.966,9.156,11.835z"/>
	<path fill="#E17098" d="M1.43,5.849h0.396h0.523C2.493,5.857,2.641,5.86,2.779,5.86c0.262,0,0.531-0.013,0.805-0.037
		c0.978-0.085,1.932-0.268,2.833-0.542c0.063-0.02,0.185-0.057,0.229-0.167C6.691,5.002,6.631,4.889,6.611,4.85
		C6.033,3.798,5.375,2.771,4.648,1.795C4.62,1.758,4.53,1.641,4.384,1.641c-0.06,0-0.118,0.016-0.18,0.05
		C2.652,2.52,1.62,3.779,1.133,5.433C1.12,5.48,1.074,5.63,1.159,5.741C1.238,5.849,1.381,5.849,1.43,5.849z"/>
	<path fill="#E17098" d="M4.632,8.604c0.821-0.642,1.711-1.141,2.651-1.482C7.4,7.081,7.502,7.042,7.545,6.945
		C7.586,6.847,7.542,6.75,7.486,6.626L7.43,6.497C7.392,6.417,7.355,6.339,7.323,6.259c-0.069-0.165-0.182-0.2-0.265-0.2
		c-0.041,0-0.083,0.008-0.131,0.024C6.766,6.14,6.6,6.188,6.434,6.235L6.382,6.249c-1.584,0.45-3.271,0.62-5.043,0.509
		c-0.04-0.002-0.072-0.002-0.107-0.002c-0.091,0-0.188,0.008-0.257,0.079C0.906,6.909,0.9,7.013,0.906,7.114
		c0.039,1.299,0.433,2.47,1.176,3.479c0.107,0.144,0.168,0.229,0.281,0.229c0.111,0,0.174-0.08,0.281-0.215
		C3.27,9.819,3.916,9.163,4.632,8.604z"/>
	<path fill="#E17098" d="M5.819,1.149L5.791,1.154C5.716,1.167,5.599,1.188,5.559,1.296C5.512,1.408,5.592,1.518,5.617,1.553
		C6.31,2.508,6.944,3.521,7.506,4.564C7.53,4.611,7.604,4.75,7.768,4.75c0.047,0,0.098-0.013,0.157-0.04
		c1.05-0.481,2.009-1.086,2.858-1.805c0.045-0.036,0.107-0.087,0.131-0.183l0.004-0.021l-0.004-0.023
		c-0.015-0.119-0.098-0.181-0.149-0.222L10.74,2.435c-0.692-0.575-1.481-0.98-2.357-1.204C7.521,1.01,6.658,0.982,5.819,1.149z"/>
	<path fill="#E17098" d="M12.49,7.846c-0.789-0.212-1.549-0.314-2.387-0.321l-0.062-0.002c-0.155,0-0.393,0.02-0.722,0.061
		c-0.12,0.015-0.235,0.03-0.292,0.124c-0.06,0.093-0.021,0.199,0.021,0.321c0.424,1.175,0.767,2.395,1.015,3.626
		c0.022,0.104,0.056,0.28,0.218,0.28c0.074,0,0.143-0.041,0.238-0.115c1.17-0.908,1.928-2.092,2.252-3.521
		C12.844,7.979,12.647,7.887,12.49,7.846z"/>
	<path fill="#E17098" d="M8.242,6.055c0.02,0.042,0.039,0.083,0.06,0.124c0.039,0.081,0.075,0.155,0.102,0.233
		c0.072,0.251,0.235,0.346,0.523,0.303c1.142-0.18,2.329-0.121,3.552,0.177c0.074,0.018,0.129,0.029,0.178,0.029
		c0.068,0,0.119-0.02,0.159-0.06c0.073-0.073,0.073-0.18,0.067-0.348l-0.006-0.062c-0.011-0.063-0.016-0.143-0.027-0.224
		c-0.13-0.911-0.463-1.772-0.984-2.559c-0.052-0.07-0.131-0.167-0.254-0.167c-0.096,0-0.172,0.06-0.219,0.103
		c-0.145,0.127-0.293,0.244-0.459,0.372c-0.746,0.578-1.579,1.084-2.482,1.507C8.12,5.639,8.093,5.718,8.242,6.055z M12.656,6.788
		L12.656,6.788L12.656,6.788L12.656,6.788z"/>
</g>
</svg>
