<?xml version="1.0" encoding="utf-8"?>
<!-- Generator: Adobe Illustrator 16.0.4, SVG Export Plug-In . SVG Version: 6.00 Build 0)  -->
<!DOCTYPE svg PUBLIC "-//W3C//DTD SVG 1.1//EN" "http://www.w3.org/Graphics/SVG/1.1/DTD/svg11.dtd">
<svg version="1.1" id="Layer_1" xmlns="http://www.w3.org/2000/svg" xmlns:xlink="http://www.w3.org/1999/xlink" x="0px" y="0px"
	 width="452px" height="251px" viewBox="0 0 452 251" enable-background="new 0 0 452 251" xml:space="preserve">
<g>
	<path fill="#DADDE0" d="M54.201,228.25c-3.97,0-7.2-3.229-7.2-7.2V18.45c0-3.97,3.23-7.2,7.2-7.2h338.098
		c3.97,0,7.199,3.23,7.199,7.2v202.6c0,3.971-3.229,7.2-7.199,7.2H54.201z"/>
	<path fill="#414141" d="M395.898,221.05c0,1.988-1.611,3.601-3.6,3.601H54.201c-1.988,0-3.6-1.612-3.6-3.601V18.45
		c0-1.988,1.612-3.6,3.6-3.6h338.098c1.988,0,3.6,1.612,3.6,3.6V221.05z"/>
	<rect x="65" y="29.25" fill="#616161" width="316.5" height="181"/>
	<path fill="#999999" d="M449,236.15c0,1.988-1.469,3.6-3.281,3.6H6.281c-1.812,0-3.281-1.611-3.281-3.6V236.1
		c0-1.988,1.469-3.6,3.281-3.6h439.438c1.812,0,3.281,1.611,3.281,3.6V236.15z"/>
	<path fill="#E9EAEC" d="M268.539,228.25c-0.285,1.702-1.756,3.003-3.539,3.003h-78c-1.784,0-3.254-1.301-3.54-3.003H3v8.5h446v-8.5
		H268.539z"/>
	<path fill="#999999" d="M187,231.253h78c1.783,0,3.254-1.301,3.539-3.003H183.46C183.746,229.952,185.216,231.253,187,231.253z"/>
	<polygon opacity="0.05" fill="#FFFFFF" points="395.898,161.864 65,14.85 395.898,14.85 	"/>
</g>
</svg>
