<?xml version="1.0" encoding="utf-8"?>
<!-- Generator: Adobe Illustrator 16.0.4, SVG Export Plug-In . SVG Version: 6.00 Build 0)  -->
<!DOCTYPE svg PUBLIC "-//W3C//DTD SVG 1.1//EN" "http://www.w3.org/Graphics/SVG/1.1/DTD/svg11.dtd">
<svg version="1.1" id="Layer_1" xmlns="http://www.w3.org/2000/svg" xmlns:xlink="http://www.w3.org/1999/xlink" x="0px" y="0px"
	 width="7.861px" height="13.716px" viewBox="0 0 7.861 13.716" enable-background="new 0 0 7.861 13.716" xml:space="preserve">
<g>
	<path fill-rule="evenodd" clip-rule="evenodd" fill="#38455D" d="M4.878,0.008c0,1.154,0,2.271,0,3.426c0.845,0,1.627,0,2.439,0
		c0,0.802,0,1.564,0,2.377c-0.821,0-1.633,0-2.478,0c0,1.46-0.038,2.872,0.017,4.28c0.027,0.696,0.502,1.042,1.217,1.023
		c0.377-0.01,0.754-0.093,1.186-0.15c0.198,0.578,0.416,1.178,0.599,1.788c0.026,0.085-0.089,0.272-0.187,0.327
		c-1.403,0.782-2.864,0.864-4.286,0.132c-1.261-0.648-1.772-1.807-1.781-3.194c-0.009-1.38-0.002-2.761-0.002-4.183
		c-0.527,0-1.021,0-1.599,0c0-0.657-0.011-1.275,0.012-1.893c0.003-0.086,0.153-0.197,0.26-0.244C1.7,3.063,2.413,1.905,2.652,0.421
		c0.052-0.325,0.153-0.434,0.479-0.42C3.69,0.026,4.253,0.008,4.878,0.008z"/>
</g>
</svg>
