<?xml version="1.0" encoding="utf-8"?>
<!-- Generator: Adobe Illustrator 16.0.4, SVG Export Plug-In . SVG Version: 6.00 Build 0)  -->
<!DOCTYPE svg PUBLIC "-//W3C//DTD SVG 1.1//EN" "http://www.w3.org/Graphics/SVG/1.1/DTD/svg11.dtd">
<svg version="1.1" id="Layer_1" xmlns="http://www.w3.org/2000/svg" xmlns:xlink="http://www.w3.org/1999/xlink" x="0px" y="0px"
	 width="16.949px" height="13.881px" viewBox="0 0 16.949 13.881" enable-background="new 0 0 16.949 13.881" xml:space="preserve">
<path fill-rule="evenodd" clip-rule="evenodd" fill="#25A7DF" d="M16.438,0.307c-0.021,0.329-0.212,0.585-0.381,0.845
	c-0.261,0.398-0.603,0.721-0.992,1.002c0.642-0.048,1.244-0.243,1.884-0.497c-0.295,0.459-0.617,0.827-0.972,1.166
	c-0.198,0.189-0.411,0.363-0.626,0.532c-0.096,0.075-0.137,0.15-0.133,0.274c0.131,3.937-2.307,8.38-6.818,9.764
	c-2.873,0.881-5.641,0.574-8.252-0.954c-0.041-0.024-0.082-0.05-0.121-0.078C0.02,12.354,0.017,12.338,0,12.305
	c1.863,0.163,3.539-0.301,5.073-1.448c-0.198-0.026-0.349-0.038-0.497-0.066C3.301,10.55,2.412,9.825,1.902,8.634
	c-0.088-0.205-0.08-0.216,0.146-0.186c0.384,0.051,0.764,0.027,1.143-0.046C3.229,8.394,3.277,8.4,3.298,8.335
	C2.889,8.224,2.495,8.072,2.146,7.827c-0.967-0.676-1.481-1.604-1.55-2.782C0.588,4.903,0.635,4.902,0.748,4.952
	c0.584,0.259,1.01,0.363,1.355,0.341C2.086,5.215,2.01,5.197,1.96,5.157C0.653,4.118,0.246,2.314,0.99,0.843
	C1.093,0.641,1.093,0.641,1.24,0.81C2.844,2.662,4.855,3.79,7.271,4.193C7.547,4.24,7.828,4.254,8.107,4.291
	c0.158,0.021,0.191-0.02,0.166-0.187c-0.29-1.815,0.766-3.502,2.508-3.968c1.258-0.336,2.386-0.048,3.35,0.835
	c0.107,0.099,0.198,0.131,0.344,0.096c0.636-0.154,1.243-0.378,1.816-0.695c0.047-0.026,0.1-0.043,0.148-0.064L16.438,0.307z"/>
</svg>
